# xmcd
#
# Track frame offsets: 
#        150
#        27570
#        50529
#        73305
#        99111
#        133033
#        165947
#
# Disc length: 2507 seconds
#
# Revision: 0
# Processed by: cddbd v1.5.2PL0 Copyright (c) Steve Scherf et al.
# Submitted via: ExactAudioCopy v1.0b3
#
DISCID=5909c907
DTITLE=Sia - The We Meaning You Tour
DYEAR=2010
DGENRE=Pop
TTITLE0=I Go To Sleep (Live London Roundhouse 27-May-2010)
TTITLE1=Cloud (Live London Roundhouse 27-May-2010)
TTITLE2=Clap Your Hands (Live London Roundhouse 27-May-2010)
TTITLE3=You Have Been Loved (Live London Roundhouse 27-May-2010)
TTITLE4=Breathe Me (Live London Roundhouse 27-May-2010)
TTITLE5=Day Too Soon (Live London Roundhouse 27-May-2010)
TTITLE6=Soon We'll Be Found (Live London Roundhouse 27-May-2010)
EXTD=
EXTT0=
EXTT1=
EXTT2=
EXTT3=
EXTT4=
EXTT5=
EXTT6=
PLAYORDER=
